<?xml version="1.0" encoding="UTF-8" standalone="no"?>
<!-- Created with Inkscape (http://www.inkscape.org/) -->

<svg
   width="448"
   height="64"
   viewBox="0 0 448 64"
   version="1.1"
   id="svg1"
   xml:space="preserve"
   inkscape:version="1.3 (0e150ed6c4, 2023-07-21)"
   sodipodi:docname="enemy.svg"
   xmlns:inkscape="http://www.inkscape.org/namespaces/inkscape"
   xmlns:sodipodi="http://sodipodi.sourceforge.net/DTD/sodipodi-0.dtd"
   xmlns="http://www.w3.org/2000/svg"
   xmlns:svg="http://www.w3.org/2000/svg"><sodipodi:namedview
     id="namedview1"
     pagecolor="#ffffff"
     bordercolor="#000000"
     borderopacity="0.25"
     inkscape:showpageshadow="2"
     inkscape:pageopacity="0.0"
     inkscape:pagecheckerboard="false"
     inkscape:deskcolor="#d1d1d1"
     inkscape:document-units="px"
     showgrid="true"
     inkscape:lockguides="false"
     showguides="false"
     inkscape:zoom="3.9156336"
     inkscape:cx="355.37033"
     inkscape:cy="52.226542"
     inkscape:window-width="1920"
     inkscape:window-height="991"
     inkscape:window-x="-9"
     inkscape:window-y="-9"
     inkscape:window-maximized="1"
     inkscape:current-layer="layer1"><inkscape:grid
       id="grid1"
       units="px"
       originx="0"
       originy="0"
       spacingx="1"
       spacingy="1"
       empcolor="#0099e5"
       empopacity="0.30196078"
       color="#0099e5"
       opacity="0.14901961"
       empspacing="5"
       dotted="false"
       gridanglex="30"
       gridanglez="30"
       visible="true" /></sodipodi:namedview><defs
     id="defs1"><linearGradient
       id="swatch1"
       inkscape:swatch="solid"><stop
         style="stop-color:#000000;stop-opacity:1;"
         offset="0"
         id="stop1" /></linearGradient></defs><g
     inkscape:label="Layer 1"
     inkscape:groupmode="layer"
     id="layer1"><g
       id="g1"
       transform="matrix(0.32809524,0,0,0.32809524,-3.12775,-3.8322639)"><g
         id="layer2"
         inkscape:label="Layer 2"><path
           style="fill:#ff0000;fill-opacity:1;stroke:#3b9100;stroke-width:4.05125;stroke-opacity:1"
           d="m 105.37941,18.791081 c 0,0 82.82027,48.875382 -7.037351,87.490659 -89.8575662,38.61538 12.695131,79.54407 12.695131,79.54407 z"
           id="path11-4" /></g><g
         inkscape:label="Layer 1"
         id="layer1-3"
         style="opacity:1;fill:#fffa00;fill-opacity:1"><path
           style="fill:#ff0000;stroke:#3b9100;stroke-width:4.05125;stroke-opacity:1"
           d="m 102.95734,26.002542 c 0,0 -80.148885,53.142972 11.60649,87.002478 91.75537,33.85954 -8.51478,80.09944 -8.51478,80.09944 z"
           id="path11" /><path
           style="fill:#ffff00;fill-opacity:1;stroke:#000091;stroke-width:5.09639;stroke-opacity:1"
           d="m 81.3004,61.637338 c 0,0 8.28293,13.344995 18.406519,0.460155"
           id="path12-8" /><path
           style="fill:#ffff00;fill-opacity:1;stroke:#000091;stroke-width:5.09639;stroke-opacity:1"
           d="m 112.09481,62.208689 c 0,0 8.28295,13.344995 18.40654,0.460155"
           id="path12-8-60" /><path
           style="fill:#ffff00;fill-opacity:1;stroke:#000091;stroke-width:2.54697;stroke-linejoin:bevel;stroke-dasharray:none;stroke-dashoffset:0;stroke-opacity:1"
           d="m 96.17227,95.408026 c 0,0 8.17403,-13.169549 18.16452,-0.454108"
           id="path12-8-6" /></g></g><path
       style="fill:#ffff00;stroke:#000091;stroke-width:0.774803;stroke-linejoin:bevel;stroke-dasharray:none;stroke-dashoffset:0;stroke-opacity:1"
       d="M 64.387401,0 V 63.591242"
       id="path1" /><path
       style="fill:#ffff00;stroke:#000091;stroke-width:0.774803;stroke-linejoin:bevel;stroke-dasharray:none;stroke-dashoffset:0;stroke-opacity:1"
       d="M 256.3874,0 V 63.591242"
       id="path1-7" /><path
       style="fill:#ffff00;stroke:#000091;stroke-width:0.774803;stroke-linejoin:bevel;stroke-dasharray:none;stroke-dashoffset:0;stroke-opacity:1"
       d="M 320.3874,0 V 63.591242"
       id="path1-7-8" /><path
       style="fill:#ffff00;stroke:#000091;stroke-width:0.774803;stroke-linejoin:bevel;stroke-dasharray:none;stroke-dashoffset:0;stroke-opacity:1"
       d="M 384.3874,0 V 63.591242"
       id="path1-7-8-6" /><path
       style="fill:#ffff00;stroke:#000091;stroke-width:0.774803;stroke-linejoin:bevel;stroke-dasharray:none;stroke-dashoffset:0;stroke-opacity:1"
       d="M 128.3874,0 V 63.591242"
       id="path1-0" /><path
       style="fill:#ffff00;stroke:#000091;stroke-width:0.774803;stroke-linejoin:bevel;stroke-dasharray:none;stroke-dashoffset:0;stroke-opacity:1"
       d="M 192.3874,0 V 63.591242"
       id="path1-0-6" /><g
       id="g2"
       transform="matrix(0.32809524,0,0,0.32809524,60.875853,-3.9345943)"><g
         id="layer2-6"
         inkscape:label="Layer 2"><path
           style="fill:#ff0000;fill-opacity:1;stroke:#3b9100;stroke-width:3.95121;stroke-opacity:1"
           d="m 105.37661,27.620057 c 0,0 82.93807,46.425341 -7.04736,83.104903 -89.9853714,36.67965 12.71319,75.55666 12.71319,75.55666 z"
           id="path11-4-4" /></g><g
         inkscape:label="Layer 1"
         id="layer1-7"
         style="opacity:1;fill:#fffa00;fill-opacity:1"><path
           style="fill:#ff0000;stroke:#3b9100;stroke-width:3.95121;stroke-opacity:1"
           d="m 102.9511,34.47002 c 0,0 -80.262886,50.479004 11.62299,82.64119 91.88588,32.16222 -8.52689,76.08419 -8.52689,76.08419 z"
           id="path11-7" /><path
           style="fill:#ffff00;fill-opacity:1;stroke:#000091;stroke-width:4.67432;stroke-opacity:1"
           d="m 81.13942,68.717683 c 0,0 8.401808,11.067309 18.670692,0.381617"
           id="path12-8-7" /><path
           style="fill:#ffff00;fill-opacity:1;stroke:#000091;stroke-width:4.67432;stroke-opacity:1"
           d="m 111.97763,69.260393 c 0,0 8.40182,11.067308 18.67071,0.381618"
           id="path12-8-60-7" /><path
           style="fill:#ffff00;fill-opacity:1;stroke:#000091;stroke-width:2.48408;stroke-linejoin:bevel;stroke-dasharray:none;stroke-dashoffset:0;stroke-opacity:1"
           d="m 96.156375,100.39632 c 0,0 8.185655,-12.509378 18.190355,-0.431341"
           id="path12-8-6-5" /></g></g><g
       id="g3"
       transform="matrix(0.32809524,0,0,0.32809524,124.87532,-2.8263625)"><g
         id="layer2-8"
         inkscape:label="Layer 2"><path
           style="fill:#ff0000;fill-opacity:1;stroke:#3b9100;stroke-width:3.85156;stroke-opacity:1"
           d="m 105.38206,31.65834 c 0,0 83.0418,44.058108 -7.056178,78.86738 -90.0979203,34.80935 12.729088,71.70401 12.729088,71.70401 z"
           id="path11-4-2" /></g><g
         inkscape:label="Layer 1"
         id="layer1-9"
         style="opacity:1;fill:#fffa00;fill-opacity:1"><path
           style="fill:#ff0000;stroke:#3b9100;stroke-width:3.85139;stroke-opacity:1"
           d="m 102.94072,38.512105 c 0,0 -80.358551,47.903694 11.63685,78.425045 91.9954,30.52139 -8.53706,72.20257 -8.53706,72.20257 z"
           id="path11-8" /><path
           style="fill:#ffff00;fill-opacity:1;stroke:#000091;stroke-width:4.39569;stroke-opacity:1"
           d="m 81.029964,69.057686 c 0,0 8.49547,9.679345 18.878831,0.333758"
           id="path12-8-62" /><path
           style="fill:#ffff00;fill-opacity:1;stroke:#000091;stroke-width:4.39569;stroke-opacity:1"
           d="m 111.86817,69.600396 c 0,0 8.49549,9.679344 18.87885,0.333759"
           id="path12-8-60-6" /><path
           style="fill:#ffff00;fill-opacity:1;stroke:#000091;stroke-width:2.41525;stroke-linejoin:bevel;stroke-dasharray:none;stroke-dashoffset:0;stroke-opacity:1"
           d="m 96.127576,100.22494 c 0,0 8.210544,-11.789859 18.245664,-0.406527"
           id="path12-8-6-1" /></g></g><g
       id="g4"
       transform="matrix(0.32809524,0,0,0.32809523,188.8747,-2.3182935)"><g
         id="layer2-0"
         inkscape:label="Layer 2"><path
           style="fill:#ff0000;fill-opacity:1;stroke:#3b9100;stroke-width:3.75435;stroke-opacity:1"
           d="m 105.3873,35.49122 c 0,0 83.14276,41.81142 -7.064754,74.84564 -90.2074601,33.03429 12.744564,68.04755 12.744564,68.04755 z"
           id="path11-4-22" /></g><g
         inkscape:label="Layer 1"
         id="layer1-35"
         style="opacity:1;fill:#fffa00;fill-opacity:1"><path
           style="fill:#ff0000;stroke:#3b9100;stroke-width:3.75403;stroke-opacity:1"
           d="m 102.93069,42.34833 c 0,0 -80.451628,45.459705 11.65033,74.42389 92.10195,28.96423 -8.54695,68.51888 -8.54695,68.51888 z"
           id="path11-86" /><path
           style="fill:#ffff00;fill-opacity:1;stroke:#000091;stroke-width:3.19328;stroke-opacity:1"
           d="m 80.621087,70.216371 c 0,0 8.839866,4.909173 19.644153,0.169276"
           id="path12-8-4" /><path
           style="fill:#ffff00;fill-opacity:1;stroke:#000091;stroke-width:3.19328;stroke-opacity:1"
           d="m 111.4593,70.759081 c 0,0 8.83988,4.909172 19.64416,0.169276"
           id="path12-8-60-9" /><path
           style="fill:#ffff00;fill-opacity:1;stroke:#000091;stroke-width:2.34781;stroke-linejoin:bevel;stroke-dasharray:none;stroke-dashoffset:0;stroke-opacity:1"
           d="m 96.099904,100.06276 c 0,0 8.234376,-11.108366 18.298636,-0.383026"
           id="path12-8-6-18" /></g></g><g
       id="g5"
       transform="matrix(0.32809523,0,0,0.32809524,252.87531,-2.8263458)"><g
         id="layer2-66"
         inkscape:label="Layer 2"><path
           style="fill:#ff0000;fill-opacity:1;stroke:#3b9100;stroke-width:3.84673;stroke-opacity:1"
           d="m 105.38239,31.851222 c 0,0 83.04708,43.944834 -7.05662,78.664618 -90.1036471,34.71985 12.7299,71.51965 12.7299,71.51965 z"
           id="path11-4-1" /></g><g
         inkscape:label="Layer 1"
         id="layer1-78"
         style="opacity:1;fill:#fffa00;fill-opacity:1"><path
           style="fill:#ff0000;stroke:#3b9100;stroke-width:3.84655;stroke-opacity:1"
           d="m 102.94012,38.705348 c 0,0 -80.363449,47.780341 11.63756,78.223092 92.001,30.4428 -8.53758,72.01665 -8.53758,72.01665 z"
           id="path11-82" /><path
           style="fill:#ffff00;fill-opacity:1;stroke:#000091;stroke-width:3.75851;stroke-opacity:1"
           d="m 80.773891,69.744119 c 0,0 8.713468,6.899536 19.363269,0.237908"
           id="path12-8-2" /><path
           style="fill:#ffff00;fill-opacity:1;stroke:#000091;stroke-width:3.75851;stroke-opacity:1"
           d="m 111.61211,70.286829 c 0,0 8.71347,6.899535 19.36327,0.237908"
           id="path12-8-60-91" /><path
           style="fill:#ffff00;fill-opacity:1;stroke:#000091;stroke-width:2.41193;stroke-linejoin:bevel;stroke-dasharray:none;stroke-dashoffset:0;stroke-opacity:1"
           d="m 96.125661,100.2157 c 0,0 8.212269,-11.755006 18.249499,-0.405323"
           id="path12-8-6-3" /></g></g><g
       id="g6"
       transform="matrix(0.32809523,0,0,0.32809524,316.87584,-3.7172534)"><g
         id="layer2-2"
         inkscape:label="Layer 2"><path
           style="fill:#ff0000;fill-opacity:1;stroke:#3b9100;stroke-width:3.94131;stroke-opacity:1"
           d="m 105.37729,28.026041 c 0,0 82.94886,46.186907 -7.048272,82.678099 -89.9970844,36.49126 12.714842,75.16859 12.714842,75.16859 z"
           id="path11-4-7" /></g><g
         inkscape:label="Layer 1"
         id="layer1-32"
         style="opacity:1;fill:#fffa00;fill-opacity:1"><path
           style="fill:#ff0000;stroke:#3b9100;stroke-width:3.94128;stroke-opacity:1"
           d="m 102.94988,34.876801 c 0,0 -80.272904,50.219328 11.62444,82.216049 91.89734,31.99678 -8.52796,75.6928 -8.52796,75.6928 z"
           id="path11-862" /><path
           style="fill:#ffff00;fill-opacity:1;stroke:#000091;stroke-width:4.12714;stroke-opacity:1"
           d="m 80.893245,69.379061 c 0,0 8.613513,8.415809 19.141145,0.290192"
           id="path12-8-64" /><path
           style="fill:#ffff00;fill-opacity:1;stroke:#000091;stroke-width:4.12714;stroke-opacity:1"
           d="m 111.73147,69.921771 c 0,0 8.61351,8.415808 19.14114,0.290192"
           id="path12-8-60-62" /><path
           style="fill:#ffff00;fill-opacity:1;stroke:#000091;stroke-width:2.47749;stroke-linejoin:bevel;stroke-dasharray:none;stroke-dashoffset:0;stroke-opacity:1"
           d="m 96.152533,100.37795 c 0,0 8.189127,-12.437789 18.198067,-0.428865"
           id="path12-8-6-53" /></g></g><g
       id="g7"
       transform="matrix(0.32809524,0,0,0.32809524,380.87614,-4.8633069)"><g
         id="layer2-5"
         inkscape:label="Layer 2"><path
           style="fill:#ff0000;fill-opacity:1;stroke:#3b9100;stroke-width:4.03814;stroke-opacity:1"
           d="m 105.372,24.006212 c 0,0 82.84808,48.543204 -7.039704,86.896048 -89.8877416,38.35292 12.699394,79.00343 12.699394,79.00343 z"
           id="path11-4-5" /></g><g
         inkscape:label="Layer 1"
         id="layer1-76"
         style="opacity:1;fill:#fffa00;fill-opacity:1"><path
           style="fill:#ff0000;stroke:#3b9100;stroke-width:4.03828;stroke-opacity:1"
           d="m 102.95996,30.85318 c 0,0 -80.179963,52.782744 11.61098,86.41272 91.79093,33.63004 -8.51809,79.55649 -8.51809,79.55649 z"
           id="path11-83" /><path
           style="fill:#ffff00;fill-opacity:1;stroke:#000091;stroke-width:4.51683;stroke-opacity:1"
           d="m 81.034171,68.93996 c 0,0 8.494184,10.221725 18.875968,0.352463"
           id="path12-8-3" /><path
           style="fill:#ffff00;fill-opacity:1;stroke:#000091;stroke-width:4.51683;stroke-opacity:1"
           d="m 111.8724,69.48267 c 0,0 8.49418,10.221724 18.87596,0.352463"
           id="path12-8-60-2" /><path
           style="fill:#ffff00;fill-opacity:1;stroke:#000091;stroke-width:2.54433;stroke-linejoin:bevel;stroke-dasharray:none;stroke-dashoffset:0;stroke-opacity:1"
           d="m 96.180446,100.54893 c 0,0 8.165014,-13.156707 18.144484,-0.45366"
           id="path12-8-6-59" /></g></g></g></svg>
